<svg width="21" height="20" viewBox="0 0 21 20" fill="none" xmlns="http://www.w3.org/2000/svg">
<path d="M2.5 1.66081C2.03976 1.66081 1.66667 2.0339 1.66667 2.49414C1.66667 2.95438 2.03976 3.32747 2.5 3.32747V1.66081ZM4.41045 2.49414L5.2148 2.27629C5.11642 1.91304 4.78679 1.66081 4.41045 1.66081V2.49414ZM7.51493 13.9568L6.71057 14.1747C6.81913 14.5755 7.20623 14.8352 7.61829 14.7837L7.51493 13.9568ZM17.0672 12.7628L17.1705 13.5897C17.5244 13.5455 17.811 13.2809 17.8832 12.9316L17.0672 12.7628ZM18.5 5.83743L19.3161 6.00626C19.3668 5.76083 19.3045 5.50558 19.1462 5.31124C18.9879 5.11689 18.7506 5.00409 18.5 5.00409V5.83743ZM5.31592 5.83743L4.51156 6.05527L5.31592 5.83743ZM2.5 3.32747H4.41045V1.66081H2.5V3.32747ZM7.61829 14.7837L17.1705 13.5897L16.9638 11.9359L7.41156 13.1299L7.61829 14.7837ZM17.8832 12.9316L19.3161 6.00626L17.684 5.66859L16.2511 12.594L17.8832 12.9316ZM3.60609 2.71199L4.51156 6.05527L6.12028 5.61958L5.2148 2.27629L3.60609 2.71199ZM4.51156 6.05527L6.71057 14.1747L8.31928 13.739L6.12028 5.61958L4.51156 6.05527ZM18.5 5.00409H5.31592V6.67076H18.5V5.00409ZM9.66667 17.0835C9.66667 17.3137 9.48012 17.5002 9.25 17.5002V19.1669C10.4006 19.1669 11.3333 18.2341 11.3333 17.0835H9.66667ZM9.25 17.5002C9.01988 17.5002 8.83333 17.3137 8.83333 17.0835H7.16667C7.16667 18.2341 8.09941 19.1669 9.25 19.1669V17.5002ZM8.83333 17.0835C8.83333 16.8534 9.01988 16.6669 9.25 16.6669V15.0002C8.09941 15.0002 7.16667 15.9329 7.16667 17.0835H8.83333ZM9.25 16.6669C9.48012 16.6669 9.66667 16.8534 9.66667 17.0835H11.3333C11.3333 15.9329 10.4006 15.0002 9.25 15.0002V16.6669ZM16.3333 17.0835C16.3333 17.3137 16.1468 17.5002 15.9167 17.5002V19.1669C17.0673 19.1669 18 18.2341 18 17.0835H16.3333ZM15.9167 17.5002C15.6866 17.5002 15.5 17.3137 15.5 17.0835H13.8333C13.8333 18.2341 14.7661 19.1669 15.9167 19.1669V17.5002ZM15.5 17.0835C15.5 16.8534 15.6866 16.6669 15.9167 16.6669V15.0002C14.7661 15.0002 13.8333 15.9329 13.8333 17.0835H15.5ZM15.9167 16.6669C16.1468 16.6669 16.3333 16.8534 16.3333 17.0835H18C18 15.9329 17.0673 15.0002 15.9167 15.0002V16.6669Z" fill="#3B944E"/>
</svg>
