<svg width="18" height="18" viewBox="0 0 18 18" fill="none" xmlns="http://www.w3.org/2000/svg">
<path d="M1 0.160609C0.539763 0.160609 0.166667 0.533705 0.166667 0.993942C0.166667 1.45418 0.539763 1.82728 1 1.82728V0.160609ZM2.91045 0.993942L3.7148 0.776096C3.61642 0.412844 3.28679 0.160609 2.91045 0.160609V0.993942ZM6.01493 12.4566L5.21057 12.6745C5.31913 13.0753 5.70623 13.335 6.11829 13.2835L6.01493 12.4566ZM15.5672 11.2626L15.6705 12.0895C16.0244 12.0453 16.311 11.7807 16.3832 11.4314L15.5672 11.2626ZM17 4.33723L17.8161 4.50607C17.8668 4.26064 17.8045 4.00539 17.6462 3.81104C17.4879 3.61669 17.2506 3.50389 17 3.50389V4.33723ZM3.81592 4.33723L3.01156 4.55507L3.81592 4.33723ZM1 1.82728H2.91045V0.160609H1V1.82728ZM6.11829 13.2835L15.6705 12.0895L15.4638 10.4357L5.91156 11.6297L6.11829 13.2835ZM16.3832 11.4314L17.8161 4.50607L16.184 4.16839L14.7511 11.0938L16.3832 11.4314ZM2.10609 1.21179L3.01156 4.55507L4.62028 4.11938L3.7148 0.776096L2.10609 1.21179ZM3.01156 4.55507L5.21057 12.6745L6.81928 12.2388L4.62028 4.11938L3.01156 4.55507ZM17 3.50389H3.81592V5.17056H17V3.50389ZM8.16667 15.5833C8.16667 15.8135 7.98012 16 7.75 16V17.6667C8.9006 17.6667 9.83333 16.7339 9.83333 15.5833H8.16667ZM7.75 16C7.51988 16 7.33333 15.8135 7.33333 15.5833H5.66667C5.66667 16.7339 6.59941 17.6667 7.75 17.6667V16ZM7.33333 15.5833C7.33333 15.3532 7.51988 15.1667 7.75 15.1667V13.5C6.59941 13.5 5.66667 14.4327 5.66667 15.5833H7.33333ZM7.75 15.1667C7.98012 15.1667 8.16667 15.3532 8.16667 15.5833H9.83333C9.83333 14.4327 8.9006 13.5 7.75 13.5V15.1667ZM14.8333 15.5833C14.8333 15.8135 14.6468 16 14.4167 16V17.6667C15.5673 17.6667 16.5 16.7339 16.5 15.5833H14.8333ZM14.4167 16C14.1866 16 14 15.8135 14 15.5833H12.3333C12.3333 16.7339 13.2661 17.6667 14.4167 17.6667V16ZM14 15.5833C14 15.3532 14.1866 15.1667 14.4167 15.1667V13.5C13.2661 13.5 12.3333 14.4327 12.3333 15.5833H14ZM14.4167 15.1667C14.6468 15.1667 14.8333 15.3532 14.8333 15.5833H16.5C16.5 14.4327 15.5673 13.5 14.4167 13.5V15.1667Z" fill="white"/>
</svg>
