<svg width="80" height="33" viewBox="0 0 80 33" fill="none" xmlns="http://www.w3.org/2000/svg">
<rect width="80" height="33" rx="16.5" fill="#54B46A"/>
<path d="M21.5312 12.2756C21.4555 11.6032 21.143 11.0824 20.5938 10.7131C20.0445 10.339 19.3532 10.152 18.5199 10.152C17.9233 10.152 17.4072 10.2467 16.9716 10.4361C16.536 10.6207 16.1974 10.8764 15.956 11.2031C15.7192 11.5251 15.6009 11.892 15.6009 12.304C15.6009 12.6496 15.6813 12.9479 15.8423 13.1989C16.008 13.4498 16.2235 13.6605 16.4886 13.831C16.7585 13.9967 17.0473 14.1364 17.3551 14.25C17.6629 14.3589 17.9588 14.4489 18.2429 14.5199L19.6634 14.8892C20.1274 15.0028 20.6032 15.1567 21.0909 15.3509C21.5786 15.545 22.0308 15.8007 22.4474 16.1179C22.8641 16.4351 23.2003 16.8281 23.456 17.2969C23.7164 17.7656 23.8466 18.3267 23.8466 18.9801C23.8466 19.804 23.6335 20.5355 23.2074 21.1747C22.786 21.8139 22.1728 22.3182 21.3679 22.6875C20.5677 23.0568 19.5994 23.2415 18.4631 23.2415C17.3741 23.2415 16.4318 23.0687 15.6364 22.723C14.8409 22.3774 14.2183 21.8873 13.7685 21.2528C13.3187 20.6136 13.0701 19.8561 13.0227 18.9801H15.2244C15.267 19.5057 15.4375 19.9437 15.7358 20.294C16.0388 20.6397 16.4247 20.8977 16.8935 21.0682C17.367 21.2339 17.8854 21.3168 18.4489 21.3168C19.0691 21.3168 19.6207 21.2197 20.1037 21.0256C20.5914 20.8267 20.9749 20.5521 21.2543 20.2017C21.5336 19.8466 21.6733 19.4323 21.6733 18.9588C21.6733 18.5279 21.5502 18.1752 21.304 17.9006C21.0625 17.6259 20.7334 17.3987 20.3168 17.2188C19.9048 17.0388 19.4384 16.8802 18.9176 16.7429L17.1989 16.2741C16.0341 15.9569 15.1108 15.4905 14.429 14.875C13.7519 14.2595 13.4134 13.4451 13.4134 12.4318C13.4134 11.5937 13.6406 10.8622 14.0952 10.2372C14.5497 9.61222 15.1652 9.12689 15.9418 8.78125C16.7183 8.43087 17.5942 8.25568 18.5696 8.25568C19.5545 8.25568 20.4233 8.4285 21.1761 8.77415C21.9337 9.11979 22.5303 9.59564 22.9659 10.2017C23.4015 10.803 23.6288 11.4943 23.6477 12.2756H21.5312ZM26.4691 23V8.45455H28.6637V14.7756H35.9151V8.45455H38.1168V23H35.9151V16.6577H28.6637V23H26.4691ZM53.9478 15.7273C53.9478 17.2803 53.6637 18.6155 53.0955 19.733C52.5273 20.8456 51.7485 21.7027 50.7589 22.304C49.774 22.9006 48.6542 23.1989 47.3995 23.1989C46.14 23.1989 45.0155 22.9006 44.0259 22.304C43.0411 21.7027 42.2646 20.8433 41.6964 19.7259C41.1282 18.6084 40.8441 17.2756 40.8441 15.7273C40.8441 14.1742 41.1282 12.8414 41.6964 11.7287C42.2646 10.6113 43.0411 9.75426 44.0259 9.15767C45.0155 8.55634 46.14 8.25568 47.3995 8.25568C48.6542 8.25568 49.774 8.55634 50.7589 9.15767C51.7485 9.75426 52.5273 10.6113 53.0955 11.7287C53.6637 12.8414 53.9478 14.1742 53.9478 15.7273ZM51.7745 15.7273C51.7745 14.5436 51.5827 13.5469 51.1992 12.7372C50.8204 11.9228 50.2996 11.3073 49.6367 10.8906C48.9786 10.4692 48.2328 10.2585 47.3995 10.2585C46.5614 10.2585 45.8133 10.4692 45.1552 10.8906C44.497 11.3073 43.9762 11.9228 43.5927 12.7372C43.2139 13.5469 43.0245 14.5436 43.0245 15.7273C43.0245 16.911 43.2139 17.91 43.5927 18.7244C43.9762 19.5341 44.497 20.1496 45.1552 20.571C45.8133 20.9877 46.5614 21.196 47.3995 21.196C48.2328 21.196 48.9786 20.9877 49.6367 20.571C50.2996 20.1496 50.8204 19.5341 51.1992 18.7244C51.5827 17.91 51.7745 16.911 51.7745 15.7273ZM56.6839 23V8.45455H61.8686C63.0002 8.45455 63.9377 8.66051 64.6811 9.07244C65.4245 9.48437 65.9808 10.0478 66.3501 10.7628C66.7195 11.473 66.9041 12.2732 66.9041 13.1634C66.9041 14.0582 66.7171 14.8632 66.343 15.5781C65.9737 16.2884 65.415 16.8518 64.6669 17.2685C63.9235 17.6804 62.9884 17.8864 61.8615 17.8864H58.2962V16.0256H61.6626C62.3776 16.0256 62.9576 15.9025 63.4027 15.6562C63.8478 15.4053 64.1745 15.0644 64.3828 14.6335C64.5911 14.2027 64.6953 13.7126 64.6953 13.1634C64.6953 12.6141 64.5911 12.1264 64.3828 11.7003C64.1745 11.2741 63.8454 10.9403 63.3956 10.6989C62.9505 10.4574 62.3634 10.3366 61.6342 10.3366H58.8786V23H56.6839Z" fill="white"/>
</svg>
